<svg role="img" xmlns="http://www.w3.org/2000/svg"><title>Donate</title>
<path d="M8.7,0.8v0.3c0.2,0,0.4,0.1,0.5,0.1c0.4,0.1,0.6,0.5,0.5,0.9S9.2,2.8,8.8,2.7C8.5,2.6,8.2,2.5,8,2.5c-0.2,0-0.4,0.1-0.5,0.1
	c-0.1,0-0.1,0.1-0.1,0.1c0,0,0,0,0,0.1c0,0,0,0,0,0c0,0,0,0,0.1,0.1C7.6,3,7.8,3.1,8.2,3.2l0,0l0,0c0.3,0.1,0.7,0.2,1.1,0.5
	C9.6,4,10,4.4,10,5.1c0,0.7-0.3,1.2-0.7,1.5C9.1,6.8,8.9,6.9,8.7,6.9v0.3C8.7,7.7,8.4,8,8,8C7.6,8,7.3,7.7,7.3,7.2V6.9
	C7.1,6.8,6.8,6.7,6.6,6.7c-0.1,0-0.1,0-0.2-0.1C6.1,6.5,5.9,6,6,5.6S6.5,5,6.9,5.2c0.1,0,0.1,0.1,0.2,0.1C7.5,5.4,7.7,5.5,8,5.5
	c0.2,0,0.4-0.1,0.5-0.1c0.1,0,0.1-0.1,0.1-0.1c0,0,0-0.1,0-0.1v0c0,0,0-0.1-0.1-0.1C8.4,4.9,8.2,4.8,7.8,4.7l-0.1,0
	C7.4,4.6,7,4.4,6.7,4.2C6.4,4,6,3.5,6,2.8c0-0.7,0.4-1.2,0.8-1.5c0.2-0.1,0.4-0.2,0.6-0.3V0.8C7.3,0.3,7.6,0,8,0
	C8.4,0,8.7,0.3,8.7,0.8L8.7,0.8z M15.8,10.5c0.4,0.6,0.3,1.3-0.2,1.7L12,15.2c-0.7,0.5-1.4,0.8-2.2,0.8H5.3H0.9C0.4,16,0,15.6,0,15
	v-2c0-0.6,0.4-1,0.9-1h1l1.2-1.1C3.8,10.3,4.6,10,5.4,10h2.2H8h1.8c0.5,0,0.9,0.4,0.9,1s-0.4,1-0.9,1H8H7.6c-0.2,0-0.4,0.2-0.4,0.5
	S7.3,13,7.6,13h3.4l3.3-2.8C14.7,9.8,15.4,10,15.8,10.5z M5.4,12L5.4,12L5.4,12C5.4,12,5.4,12,5.4,12z"/>
</svg>
