<svg role="img" xmlns="http://www.w3.org/2000/svg"><title>GitHub</title>
<path d="M8.1,0.1c-4.4,0-8,3.7-8,8.2c0,3.6,2.3,6.7,5.4,7.8c0.4,0.1,0.5-0.2,0.5-0.4c0-0.2,0-0.7,0-1.4c-2.2,0.5-2.7-1.1-2.7-1.1
	C3.1,12.2,2.6,12,2.6,12c-0.7-0.5,0.1-0.5,0.1-0.5c0.8,0.1,1.2,0.8,1.2,0.8c0.7,1.3,1.9,0.9,2.3,0.7c0.1-0.5,0.3-0.9,0.5-1.1
	C4.9,11.7,3,11,3,7.8c0-0.9,0.3-1.6,0.8-2.2c-0.1-0.2-0.4-1,0.1-2.2c0,0,0.7-0.2,2.2,0.8C6.7,4.1,7.4,4,8.1,4c0.7,0,1.4,0.1,2,0.3
	c1.5-1.1,2.2-0.8,2.2-0.8c0.4,1.1,0.2,2,0.1,2.2c0.5,0.6,0.8,1.3,0.8,2.2c0,3.2-1.9,3.8-3.6,4c0.3,0.2,0.5,0.7,0.5,1.5
	c0,1.1,0,2,0,2.2c0,0.2,0.1,0.5,0.5,0.4C13.8,15,16,11.9,16,8.3C16,3.7,12.5,0.1,8.1,0.1"/>
</svg>
